<svg id="Шар_3" data-name="Шар 3" xmlns="http://www.w3.org/2000/svg" viewBox="0 0 116.63 149.17"><defs><style>.cls-1,.cls-2,.cls-4{fill:none;stroke:#fff;stroke-miterlimit:10;}.cls-1{stroke-width:4px;}.cls-2{stroke-width:3px;}.cls-3{fill:#fff;}.cls-4{stroke-width:5px;}</style></defs><line class="cls-1" x1="34.03" y1="147.17" x2="82.08" y2="147.17"/><line class="cls-2" x1="1.63" y1="66.18" x2="1.63" y2="119.1"/><line class="cls-2" x1="32.86" y1="138.24" x2="0.81" y2="117.58"/><line class="cls-2" x1="67.93" y1="71.41" x2="28.49" y2="43.71"/><line class="cls-2" x1="30.57" y1="43.57" x2="0.95" y2="67.57"/><line class="cls-2" x1="47.32" y1="42.33" x2="69.47" y2="42.33"/><line class="cls-2" x1="51.47" y1="43.28" x2="40.57" y2="145.88"/><line class="cls-2" x1="30.79" y1="138.35" x2="71.47" y2="101.87"/><line class="cls-2" x1="115" y1="66.32" x2="115" y2="119.24"/><line class="cls-2" x1="83.77" y1="138.38" x2="115.82" y2="117.72"/><line class="cls-2" x1="48.7" y1="71.55" x2="88.14" y2="43.85"/><line class="cls-2" x1="86.06" y1="43.71" x2="115.68" y2="67.71"/><line class="cls-2" x1="65.31" y1="42.81" x2="76.28" y2="145.99"/><line class="cls-2" x1="85.84" y1="138.49" x2="45.16" y2="102.01"/><line class="cls-2" x1="47.18" y1="77.69" x2="70.13" y2="93.97"/><line class="cls-2" x1="69.45" y1="77.18" x2="46.75" y2="93.97"/><path class="cls-3" d="M67.31,12.78h0l.09-.07a13.79,13.79,0,0,1,1.84-1.47C79.52,2.88,78,.74,78,.74c7,4.12,1.74,8.55,1.74,8.55l-3.46,5c-1.47,2.81-2.28,5.88-1.5,8.44,1.94,6.36,7.55,4.71,11.59,2.54s3.18-7.56,3.15-7.77a13.76,13.76,0,1,1-22.21-4.71Z" transform="translate(-18.93 -0.74)"/><line class="cls-4" x1="57.2" y1="34.51" x2="57.2" y2="42.33"/></svg>